# xmcd CD database file
#
# Track frame offsets:
#	150
#	18375
#	34226
#	51912
#	63253
#	78537
#	96719
#	117576
#	132916
#	147278
#	168225
#	194775
#
# Disc length: 2784 seconds
#
# Revision: 0
# Processed by: cddbd v1.5.2PL0 Copyright (c) Steve Scherf et al.
# Submitted via: CDex 1.51
#
DISCID=b50ade0c
DTITLE=Suzy Dexter - On the Moon
DYEAR=2006
DGENRE=Jazz
TTITLE0=Five Days' Sail
TTITLE1=Autumn Finds Gold
TTITLE2=No Wings Or Wheels
TTITLE3=On The Moon
TTITLE4=What Would You Say
TTITLE5=Infatuation
TTITLE6=Steve's Cabin
TTITLE7=Fireman
TTITLE8=No Men's Land
TTITLE9=I Don't Miss A Thing
TTITLE10=Don't Forget Me When I'm Gone
TTITLE11=My Body (All Sisters)
EXTD=YEAR: 2006
EXTT0=
EXTT1=
EXTT2=
EXTT3=
EXTT4=
EXTT5=
EXTT6=
EXTT7=
EXTT8=
EXTT9=
EXTT10=
EXTT11=
PLAYORDER=
